<?xml version="1.0" encoding="UTF-8" standalone="no"?>
<!DOCTYPE svg PUBLIC "-//W3C//DTD SVG 1.1//EN" "http://www.w3.org/Graphics/SVG/1.1/DTD/svg11.dtd">
<!-- Generated by Microsoft Visio, SVG Export sgx.svg Page-1 -->
<svg xmlns="http://www.w3.org/2000/svg" xmlns:xlink="http://www.w3.org/1999/xlink" xmlns:ev="http://www.w3.org/2001/xml-events"
		xmlns:v="http://schemas.microsoft.com/visio/2003/SVGExtensions/" width="5.63959in" height="2.20226in"
		viewBox="0 0 406.051 158.563" xml:space="preserve" color-interpolation-filters="sRGB" class="st21">
	<v:documentProperties v:langID="1033" v:viewMarkup="false">
		<v:userDefs>
			<v:ud v:nameU="msvNoAutoConnect" v:val="VT0(1):26"/>
		</v:userDefs>
	</v:documentProperties>

	<style type="text/css">
	<![CDATA[
		.st1 {fill:#bfbfbf;stroke:#000000;stroke-dasharray:4,2;stroke-linecap:butt;stroke-width:2}
		.st2 {fill:none;stroke:none;stroke-linecap:round;stroke-linejoin:round;stroke-width:0.75}
		.st3 {fill:#000000;font-family:Times New Roman;font-size:0.833336em;font-weight:bold}
		.st4 {fill:#ffffff;stroke:#000000;stroke-linecap:butt;stroke-width:3}
		.st5 {font-size:1em}
		.st6 {fill:#000000;font-family:Times New Roman;font-size:1.00001em;font-weight:bold}
		.st7 {fill:none;stroke:#000000;stroke-linecap:round;stroke-linejoin:round;stroke-width:1.5}
		.st8 {fill:#ffffff}
		.st9 {stroke:none;stroke-linecap:round;stroke-linejoin:round;stroke-width:1}
		.st10 {stroke:#000000;stroke-linecap:round;stroke-linejoin:round;stroke-width:1}
		.st11 {fill:#ffffff;stroke:none;stroke-linecap:round;stroke-linejoin:round;stroke-width:1;visibility:hidden}
		.st12 {fill:#000000}
		.st13 {stroke:none;stroke-width:1.25}
		.st14 {fill:#000000;stroke:none;stroke-width:1.25;visibility:hidden}
		.st15 {fill:#ffffff;stroke:#000000;stroke-linecap:round;stroke-linejoin:round;stroke-width:1}
		.st16 {fill:#ffffff;stroke:#000000;stroke-dasharray:2,1;stroke-linecap:butt;stroke-width:1}
		.st17 {fill:#000000;font-family:Times New Roman;font-size:0.833336em}
		.st18 {fill:#ffffff;stroke:#000000;stroke-linecap:butt;stroke-width:2}
		.st19 {fill:#000000;font-family:Times New Roman;font-size:0.666664em;font-weight:bold}
		.st20 {fill:#bfbfbf;stroke:#000000;stroke-dasharray:3,1.5;stroke-linecap:butt;stroke-width:1.5}
		.st21 {fill:none;fill-rule:evenodd;font-size:12px;overflow:visible;stroke-linecap:square;stroke-miterlimit:3}
	]]>
	</style>

	<g v:mID="0" v:index="1" v:groupContext="foregroundPage">
		<title>Page-1</title>
		<v:pageProperties v:drawingScale="1" v:pageScale="1" v:drawingUnits="19" v:shadowOffsetX="9" v:shadowOffsetY="-9"/>
		<v:layer v:name="Connector" v:index="0"/>
		<g id="shape16-1" v:mID="16" v:groupContext="shape" transform="translate(2,-2.375)">
			<title>Sheet.16</title>
			<path d="M0 158.56 L294.19 158.56 L294.19 124.98 L0 124.98 L0 158.56 Z" class="st1"/>
		</g>
		<g id="shape47-3" v:mID="47" v:groupContext="shape" transform="translate(5.13043,-10.2745)">
			<title>Sheet.47</title>
			<desc>Off-chip hardware</desc>
			<v:textBlock v:margins="rect(4,4,4,4)"/>
			<v:textRect cx="44.6784" cy="150.288" width="89.36" height="16.5481"/>
			<rect x="0" y="142.014" width="89.3568" height="16.5481" class="st2"/>
			<text x="4" y="153.29" class="st3" v:langID="1033"><v:paragraph/><v:tabList/>Off-chip hardware</text>		</g>
		<g id="shape48-6" v:mID="48" v:groupContext="shape" transform="translate(2.01264,-40.0625)">
			<title>Sheet.48</title>
			<path d="M0 158.56 L294.48 158.56 L294.48 131.2 L0 131.2 L0 158.56 Z" class="st1"/>
		</g>
		<g id="shape49-8" v:mID="49" v:groupContext="shape" transform="translate(7.47826,-42.6414)">
			<title>Sheet.49</title>
			<desc>Host OS</desc>
			<v:textBlock v:margins="rect(4,4,4,4)"/>
			<v:textRect cx="63.7829" cy="147.084" width="127.57" height="22.957"/>
			<rect x="0" y="135.606" width="127.566" height="22.957" class="st2"/>
			<text x="4" y="150.08" class="st3" v:langID="1033"><v:paragraph/><v:tabList/>Host OS</text>		</g>
		<g id="shape50-11" v:mID="50" v:groupContext="shape" transform="translate(2,-71.5625)">
			<title>Sheet.50</title>
			<path d="M0 158.56 L294.48 158.56 L294.48 91.63 L0 91.63 L0 158.56 Z" class="st1"/>
		</g>
		<g id="shape51-13" v:mID="51" v:groupContext="shape" transform="translate(190.667,-78.3125)">
			<title>Sheet.51</title>
			<rect x="0" y="103.438" width="98.6042" height="55.125" class="st4"/>
		</g>
		<g id="shape59-15" v:mID="59" v:groupContext="shape" transform="translate(347.143,-75.4834)">
			<title>Sheet.59</title>
			<desc>Remote service or enclave</desc>
			<v:textBlock v:margins="rect(4,4,4,4)"/>
			<v:textRect cx="27.9538" cy="128.57" width="55.91" height="59.9854"/>
			<rect x="0" y="98.5771" width="55.9076" height="59.9854" class="st4"/>
			<text x="11.57" y="116.07" class="st3" v:langID="1033"><v:paragraph v:spLine="-1" v:horizAlign="1"/><v:tabList/>Remote <tspan
						x="13.24" dy="1em" class="st5">service<v:lf/></tspan><tspan x="23.23" dy="1em" class="st5">or<v:lf/></tspan><tspan
						x="12.13" dy="1em" class="st5">enclave</tspan></text>		</g>
		<g id="shape61-21" v:mID="61" v:groupContext="shape" transform="translate(103.5,-142.014)">
			<title>Sheet.61</title>
			<desc>Local host</desc>
			<v:textBlock v:margins="rect(4,4,4,4)"/>
			<v:textRect cx="37.2656" cy="150.288" width="74.54" height="16.5481"/>
			<rect x="0" y="142.014" width="74.5313" height="16.5481" class="st2"/>
			<text x="10.76" y="153.89" class="st6" v:langID="1033"><v:paragraph v:horizAlign="1"/><v:tabList/>Local host</text>		</g>
		<g id="shape63-24" v:mID="63" v:groupContext="shape" transform="translate(195.113,-105.604)">
			<title>Sheet.63</title>
			<desc>Enclave data</desc>
			<v:textBlock v:margins="rect(4,4,4,4)"/>
			<v:textRect cx="44.6784" cy="147.084" width="89.36" height="22.957"/>
			<rect x="0" y="135.606" width="89.3568" height="22.957" class="st7"/>
			<text x="17.04" y="150.08" class="st3" v:langID="1033"><v:paragraph v:horizAlign="1"/><v:tabList/>Enclave data</text>		</g>
		<g id="shape64-27" v:mID="64" v:groupContext="shape" transform="translate(195.113,-82.6472)">
			<title>Sheet.64</title>
			<desc>Enclave code</desc>
			<v:textBlock v:margins="rect(4,4,4,4)"/>
			<v:textRect cx="44.6784" cy="147.084" width="89.36" height="22.957"/>
			<rect x="0" y="135.606" width="89.3568" height="22.957" class="st7"/>
			<text x="16.77" y="150.08" class="st3" v:langID="1033"><v:paragraph v:horizAlign="1"/><v:tabList/>Enclave code</text>		</g>
		<g id="group68-30" transform="translate(124.089,139.875) rotate(-90)" v:mID="68" v:groupContext="group">
			<v:userDefs>
				<v:ud v:nameU="visVersion" v:val="VT0(15):26"/>
			</v:userDefs>
			<title>2-D single</title>
			<g id="shape69-31" v:mID="69" v:groupContext="shape">
				<title>Sheet.69</title>
				<path d="M0 154.9 L62.36 154.9 L62.36 158.56 L66.02 151.24 L62.36 143.91 L62.36 147.57 L0 147.57 L0 154.9 Z"
						class="st8"/>
				<path d="M0 154.9 L62.36 154.9 L62.36 158.56 L66.02 151.24 L62.36 143.91 L62.36 147.57 L0 147.57" class="st9"/>
			</g>
			<g id="shape70-34" v:mID="70" v:groupContext="shape">
				<title>Sheet.70</title>
				<path d="M0 154.9 L62.36 154.9 L62.36 158.56 L66.02 151.24 L62.36 143.91 L62.36 147.57 L0 147.57 L0 154.9"
						class="st10"/>
			</g>
			<g id="shape71-37" v:mID="71" v:groupContext="shape" transform="translate(-2,-4.66308)">
				<title>Sheet.71</title>
				<rect x="0" y="153.236" width="2" height="5.32615" class="st11"/>
			</g>
		</g>
		<g id="group76-39" transform="translate(164,-97.4403)" v:mID="76" v:groupContext="group">
			<v:userDefs>
				<v:ud v:nameU="visVersion" v:val="VT0(15):26"/>
			</v:userDefs>
			<title>2-D single.76</title>
			<g id="shape77-40" v:mID="77" v:groupContext="shape">
				<title>Sheet.77</title>
				<path d="M0 154.43 L19.32 154.43 L19.32 158.56 L23.46 150.29 L19.32 142.01 L19.32 146.15 L0 146.15 L0 154.43 Z"
						class="st12"/>
				<path d="M0 154.43 L19.32 154.43 L19.32 158.56 L23.46 150.29 L19.32 142.01 L19.32 146.15 L0 146.15" class="st13"/>
			</g>
			<g id="shape78-43" v:mID="78" v:groupContext="shape">
				<title>Sheet.78</title>
				<path d="M0 154.43 L19.32 154.43 L19.32 158.56 L23.46 150.29 L19.32 142.01 L19.32 146.15 L0 146.15 L0 154.43"
						class="st13"/>
			</g>
			<g id="shape79-46" v:mID="79" v:groupContext="shape" transform="translate(-2.5,-5.38704)">
				<title>Sheet.79</title>
				<rect x="0" y="152.788" width="2.5" height="5.77407" class="st14"/>
			</g>
		</g>
		<g id="group80-48" transform="translate(45.9375,108.375) rotate(-90)" v:mID="80" v:groupContext="group">
			<v:userDefs>
				<v:ud v:nameU="visVersion" v:val="VT0(15):26"/>
			</v:userDefs>
			<title>2-D single.80</title>
			<g id="shape81-49" v:mID="81" v:groupContext="shape">
				<title>Sheet.81</title>
				<path d="M0 154.43 L24 154.43 L24 158.56 L28.14 150.29 L24 142.01 L24 146.15 L0 146.15 L0 154.43 Z" class="st12"/>
				<path d="M0 154.43 L24 154.43 L24 158.56 L28.14 150.29 L24 142.01 L24 146.15 L0 146.15" class="st13"/>
			</g>
			<g id="shape82-52" v:mID="82" v:groupContext="shape">
				<title>Sheet.82</title>
				<path d="M0 154.43 L24 154.43 L24 158.56 L28.14 150.29 L24 142.01 L24 146.15 L0 146.15 L0 154.43" class="st13"/>
			</g>
			<g id="shape83-55" v:mID="83" v:groupContext="shape" transform="translate(-2.5,-5.38704)">
				<title>Sheet.83</title>
				<rect x="0" y="152.788" width="2.5" height="5.77407" class="st14"/>
			</g>
		</g>
		<g id="group84-57" transform="translate(66.9856,149.985) rotate(-90)" v:mID="84" v:groupContext="group">
			<v:userDefs>
				<v:ud v:nameU="visVersion" v:val="VT0(15):26"/>
			</v:userDefs>
			<title>2-D single.84</title>
			<g id="shape85-58" v:mID="85" v:groupContext="shape">
				<title>Sheet.85</title>
				<path d="M0 154.43 L65.61 154.43 L65.61 158.56 L69.75 150.29 L65.61 142.01 L65.61 146.15 L0 146.15 L0 154.43 Z"
						class="st12"/>
				<path d="M0 154.43 L65.61 154.43 L65.61 158.56 L69.75 150.29 L65.61 142.01 L65.61 146.15 L0 146.15" class="st13"/>
			</g>
			<g id="shape86-61" v:mID="86" v:groupContext="shape">
				<title>Sheet.86</title>
				<path d="M0 154.43 L65.61 154.43 L65.61 158.56 L69.75 150.29 L65.61 142.01 L65.61 146.15 L0 146.15 L0 154.43"
						class="st13"/>
			</g>
			<g id="shape87-64" v:mID="87" v:groupContext="shape" transform="translate(-2.5,-5.38704)">
				<title>Sheet.87</title>
				<rect x="0" y="152.788" width="2.5" height="5.77407" class="st14"/>
			</g>
		</g>
		<g id="shape88-66" v:mID="88" v:groupContext="shape" transform="translate(279.5,-90.4448)">
			<title>2-D double</title>
			<v:userDefs>
				<v:ud v:nameU="visVersion" v:val="VT0(15):26"/>
			</v:userDefs>
			<path d="M3.33 148.59 L3.33 145.26 L0 151.91 L3.33 158.56 L3.33 155.24 L71.21 155.24 L71.21 158.56 L74.53 151.91 L71.21
						 145.26 L71.21 148.59 L3.33 148.59 Z" class="st15"/>
		</g>
		<g id="shape89-68" v:mID="89" v:groupContext="shape" transform="translate(11.5168,-85.1008)">
			<title>Rectangle</title>
			<desc>In-process attacks (memory corruption, ROP attacks)</desc>
			<v:userDefs>
				<v:ud v:nameU="visVersion" v:val="VT0(15):26"/>
			</v:userDefs>
			<v:textBlock v:margins="rect(4,4,4,4)"/>
			<v:textRect cx="75.9062" cy="137.949" width="151.82" height="41.2272"/>
			<path d="M0 158.56 L151.81 158.56 L151.81 117.34 L0 117.34 L0 158.56 Z" class="st16"/>
			<text x="39.95" y="135.45" class="st17" v:langID="1033"><v:paragraph v:spLine="-1" v:horizAlign="1"/><v:tabList/>In-process attacks<v:lf/><tspan
						x="6.48" dy="1em" class="st5">(memory corruption, ROP attacks)</tspan></text>		</g>
		<g id="shape90-72" v:mID="90" v:groupContext="shape" transform="translate(95.913,-6.36141)">
			<title>Rectangle.90</title>
			<desc>Hardware attacks (e.g., cold-boot attacks)</desc>
			<v:userDefs>
				<v:ud v:nameU="visVersion" v:val="VT0(15):26"/>
			</v:userDefs>
			<v:textBlock v:margins="rect(4,4,4,4)"/>
			<v:textRect cx="67.231" cy="145.574" width="134.47" height="25.9761"/>
			<path d="M0 158.56 L134.46 158.56 L134.46 132.59 L0 132.59 L0 158.56 Z" class="st16"/>
			<text x="32.39" y="143.07" class="st17" v:langID="1033"><v:paragraph v:spLine="-1" v:horizAlign="1"/><v:tabList/>Hardware attacks<v:lf/><tspan
						x="19.89" dy="1em" class="st5">(e.g., cold</tspan>-boot attacks)</text>		</g>
		<g id="shape91-76" v:mID="91" v:groupContext="shape" transform="translate(96.5,-44.5625)">
			<title>Rectangle.91</title>
			<desc>OS attacks (e.g., rootkits)</desc>
			<v:userDefs>
				<v:ud v:nameU="visVersion" v:val="VT0(15):26"/>
			</v:userDefs>
			<v:textBlock v:margins="rect(4,4,4,4)"/>
			<v:textRect cx="56.3232" cy="149.358" width="112.65" height="18.4081"/>
			<path d="M0 158.56 L112.65 158.56 L112.65 140.15 L0 140.15 L0 158.56 Z" class="st16"/>
			<text x="5.22" y="151.86" class="st17" v:langID="1033"><v:paragraph v:spLine="-1" v:horizAlign="1"/><v:tabList/>OS attacks (e.g., rootkits)</text>		</g>
		<g id="shape141-79" v:mID="141" v:groupContext="shape" transform="translate(229.5,-47.4484)">
			<title>Rectangle.141</title>
			<desc>Enclave creation</desc>
			<v:userDefs>
				<v:ud v:nameU="visVersion" v:val="VT0(15):26"/>
			</v:userDefs>
			<v:textBlock v:margins="rect(4,4,4,4)"/>
			<v:textRect cx="40.4484" cy="151.813" width="80.9" height="13.5"/>
			<rect x="0" y="145.063" width="80.8967" height="13.5" class="st15"/>
			<text x="7" y="154.31" class="st17" v:langID="1033"><v:paragraph v:spLine="-1" v:horizAlign="1"/><v:tabList/>Enclave creation</text>		</g>
		<g id="shape143-82" v:mID="143" v:groupContext="shape" transform="translate(292.5,-107.206)">
			<title>Rectangle.143</title>
			<desc>Exchange attestation</desc>
			<v:userDefs>
				<v:ud v:nameU="visVersion" v:val="VT0(15):26"/>
			</v:userDefs>
			<v:textBlock v:margins="rect(4,4,4,4)"/>
			<v:textRect cx="24.75" cy="145.574" width="49.51" height="25.9761"/>
			<rect x="0" y="132.586" width="49.5" height="25.9761" class="st15"/>
			<text x="5.04" y="143.07" class="st17" v:langID="1033"><v:paragraph v:spLine="-1" v:horizAlign="1"/><v:tabList/>Exchange <tspan
						x="4.2" dy="1em" class="st5">attestation</tspan></text>		</g>
		<g id="shape30-86" v:mID="30" v:groupContext="shape" transform="translate(235.217,-9.125)">
			<title>Sheet.30</title>
			<desc>Intel CPU</desc>
			<v:textBlock v:margins="rect(4,4,4,4)"/>
			<v:textRect cx="27.9538" cy="147.593" width="55.91" height="21.9389"/>
			<rect x="0" y="136.624" width="55.9076" height="21.9389" class="st4"/>
			<text x="6.43" y="150.09" class="st3" v:langID="1033"><v:paragraph v:spLine="-1" v:horizAlign="1"/><v:tabList/>Intel CPU</text>		</g>
		<g id="shape145-89" v:mID="145" v:groupContext="shape" transform="translate(333.006,-24.9763)">
			<title>Sheet.145</title>
			<rect x="0" y="146.425" width="12.0831" height="12.1375" class="st18"/>
		</g>
		<g id="group146-91" transform="translate(350.5,-25.1419)" v:mID="146" v:groupContext="group">
			<v:userDefs>
				<v:ud v:nameU="visVersion" v:val="VT0(15):26"/>
			</v:userDefs>
			<title>2-D single.146</title>
			<g id="shape147-92" v:mID="147" v:groupContext="shape">
				<title>Sheet.147</title>
				<path d="M0 155.62 L9.14 155.62 L9.14 158.56 L12.08 152.67 L9.14 146.78 L9.14 149.72 L0 149.72 L0 155.62 Z"
						class="st8"/>
				<path d="M0 155.62 L9.14 155.62 L9.14 158.56 L12.08 152.67 L9.14 146.78 L9.14 149.72 L0 149.72" class="st9"/>
			</g>
			<g id="shape148-95" v:mID="148" v:groupContext="shape">
				<title>Sheet.148</title>
				<path d="M0 155.62 L9.14 155.62 L9.14 158.56 L12.08 152.67 L9.14 146.78 L9.14 149.72 L0 149.72 L0 155.62"
						class="st10"/>
			</g>
			<g id="shape149-98" v:mID="149" v:groupContext="shape" transform="translate(-2,-3.94686)">
				<title>Sheet.149</title>
				<rect x="0" y="154.669" width="2" height="3.89372" class="st11"/>
			</g>
		</g>
		<g id="shape150-100" v:mID="150" v:groupContext="shape" transform="translate(361.208,-22.7615)">
			<title>Sheet.150</title>
			<desc>Trusted</desc>
			<v:textBlock v:margins="rect(4,4,4,4)"/>
			<v:textRect cx="21.8958" cy="150.288" width="43.8" height="16.5481"/>
			<rect x="0" y="142.014" width="43.7917" height="16.5481" class="st2"/>
			<text x="4" y="152.69" class="st19" v:langID="1033"><v:paragraph/><v:tabList/>Trusted</text>		</g>
		<g id="shape151-103" v:mID="151" v:groupContext="shape" transform="translate(332.006,-1.64188)">
			<title>Sheet.151</title>
			<path d="M0 158.56 L13.92 158.56 L13.92 144.58 L0 144.58 L0 158.56 Z" class="st20"/>
		</g>
		<g id="group152-105" transform="translate(350.5,-1.67386)" v:mID="152" v:groupContext="group">
			<v:userDefs>
				<v:ud v:nameU="visVersion" v:val="VT0(15):26"/>
			</v:userDefs>
			<title>2-D single.152</title>
			<g id="shape153-106" v:mID="153" v:groupContext="shape">
				<title>Sheet.153</title>
				<path d="M0 155.07 L8.6 155.07 L8.6 158.56 L12.08 151.59 L8.6 144.61 L8.6 148.1 L0 148.1 L0 155.07 Z" class="st12"/>
				<path d="M0 155.07 L8.6 155.07 L8.6 158.56 L12.08 151.59 L8.6 144.61 L8.6 148.1 L0 148.1" class="st13"/>
			</g>
			<g id="shape154-109" v:mID="154" v:groupContext="shape">
				<title>Sheet.154</title>
				<path d="M0 155.07 L8.6 155.07 L8.6 158.56 L12.08 151.59 L8.6 144.61 L8.6 148.1 L0 148.1 L0 155.07" class="st13"/>
			</g>
			<g id="shape155-112" v:mID="155" v:groupContext="shape" transform="translate(-2.5,-4.7376)">
				<title>Sheet.155</title>
				<rect x="0" y="154.087" width="2.5" height="4.47521" class="st14"/>
			</g>
		</g>
		<g id="shape156-114" v:mID="156" v:groupContext="shape" transform="translate(360,-0.375)">
			<title>Sheet.156</title>
			<desc>Untrusted</desc>
			<v:textBlock v:margins="rect(4,4,4,4)"/>
			<v:textRect cx="21.8958" cy="150.288" width="43.8" height="16.5481"/>
			<rect x="0" y="142.014" width="43.7917" height="16.5481" class="st2"/>
			<text x="4" y="152.69" class="st19" v:langID="1033"><v:paragraph/><v:tabList/>Untrusted</text>		</g>
	</g>
</svg>
